<svg id="arrow" xmlns="http://www.w3.org/2000/svg" xmlns:xlink="http://www.w3.org/1999/xlink" viewBox="0 0 114.08 392.03">
   <style>
      @keyframes arrow {
        100% {
          stroke-dashoffset: 0;
        }
      }

      #neck_mask {
        stroke-dasharray: 658.3;
        stroke-dashoffset: 658.3;
        animation: arrow 0.6s linear forwards 6s;
      }

      #head_mask {
        stroke-dasharray: 392;
        stroke-dashoffset: 392;
        animation: arrow 0.6s linear forwards 6.6s;
      }
    </style>
  <defs>
    <clipPath id="clip-path" transform="translate(-41.45 -3.24)">
      <path id="Head" d="M53,297H68.37l-1-3.05c9-.95,12.89,6,17,11,7.23,8.84,13.32,18.59,19.48,27.38,3-9.11,6.09-18.91,9.31-28.7,1-3,7.48-7.3,11.3-7.25l-2.22,10,.66.26c.83-1.87,1.33-4,2.62-5.5,1-1.17,3-1.49,5.74-2.67,1.57-1.81,4.55-4.44,6.5-7.68s3.13-7.38,5.3-10.77Q126.52,336,110,392h-1a13.48,13.48,0,0,0-.59-2.81C93.69,356.51,77,325,53,298Z" fill="none"/>
    </clipPath>
    <clipPath id="clip-path-2" transform="translate(-41.45 -3.24)">
      <path id="Neck" d="M95.05,42.71c.45,6.14.87,11.89,1.29,17.63l.58,0c.39-5.08.79-10.16,1.21-15.49l3.72.62a4.36,4.36,0,0,0,.46-1.09c.55-10,5.46-19.39,3.42-29.7a15.06,15.06,0,0,1,1.07-8.57c2.21,94.59,4.23,189.16,2.54,285l-12.06-18-.84,4.4c-2.48-1.38-2.46-1.37-2.3-7.79a25.5,25.5,0,0,0-1-8.88V275.4l-1.33.17a27.24,27.24,0,0,1-.8-4.14c-.55-13.91-1.29-27.81-1.49-41.73-.36-25.64-.23-51.29-.62-76.94-.47-31.29-1.51-62.59-1.67-93.88,0-5.05,3.24-10.13,5.13-15.14C92.56,43.26,93.77,43.18,95.05,42.71Z" fill="none"/>
    </clipPath>
  </defs>
  <title>arrow</title>
  <g id="head_mask">
    <g clip-path="url(#clip-path)">
      <polyline id="Head1" points="14.05 283.26 63.05 355.26 92.05 277.26 98.05 260.26" fill="none" stroke="#ffc300" stroke-miterlimit="10" stroke-width="34"/>
    </g>
  </g>
  <g id="neck_mask">
    <g clip-path="url(#clip-path-2)">
      <line id="Neck1" x1="53.05" y1="0.26" x2="59.05" y2="290.26" fill="none" stroke="#ffc300" stroke-miterlimit="10" stroke-width="25"/>
    </g>
  </g>
</svg>
