<svg id="side_arrow" data-name="Layer 1" xmlns="http://www.w3.org/2000/svg" xmlns:xlink="http://www.w3.org/1999/xlink" viewBox="0 0 826.86 698.75">
  <style>
  
    @keyframes arrow {
      100% {
        stroke-dashoffset: 0;
      }
    }

    #head_mask {
      stroke-dasharray: 1273.3;
      stroke-dashoffset: 1273.3;
      animation: arrow 0.6s linear forwards 0.6s;
    }

    #body_mask {
      stroke-dasharray: 2045.87;
      stroke-dashoffset: 2045.87;
      animation: arrow 0.6s linear forwards 1.2s;
    }

  </style>
  <defs>
    <clipPath id="clip-path" transform="translate(-65.19 -200.13)">
      <path id="body" d="M751.06,480.83c-3.57-7.59-8.72-14.18-13.45-21-16.88-24.39-36.15-46.71-58.55-66.24-24.18-21.09-50.48-38.84-79.9-52a264,264,0,0,0-51-17.18,288.16,288.16,0,0,0-57.3-6.75c-22.66-.35-45.31-.4-67.91,1.16-10.3.72-20.58,1.42-30.9,1.56-2,0-4.26.37-6.53-1.3,6.9-3.38,14.34-3.87,21.09-6.8l-7-.7c5.49-4.85,12.15-5.12,18-7.28,1.39-.51,4.18.72,2.32-3.16-.83-1.73,3.1-3.84,5.72-4.27,3.11-.51,6.3-.49,9.45-.78,1.23-.11,2.93.19,2.92-1.82s-1.57-2.17-3.18-2.17a44.47,44.47,0,0,0-8.9,1.08c-1.62.34-4.16.54-4.44-1.32-.3-2.06.9-4,3.89-4,1.82,0,4,.61,5.63-1.39-2.4-1.32-4.93-.58-6.91-1,8.16-7.17,18.51-5.08,28.37-5.44a107.41,107.41,0,0,1,11.49,0c8.68.6,17.1-.93,25.48-2.82,7.53-1.7,14.9.54,22.35.81,12.09.45,23.9,3.06,35.74,5.47,9.54,1.94,19.08,3.77,28.56,6.13a266.75,266.75,0,0,1,47.15,17.13c47.5,22,86.41,55.05,120.62,93.93A476.42,476.42,0,0,1,814.11,505a573.46,573.46,0,0,1,27.11,65.62c5.72,16.47,10.81,33.14,15.11,50,4.07,16,8,32,10.87,48.27,2.77,15.48,6,30.88,7.86,46.51A3.08,3.08,0,0,0,877,718v8c-6-1-6.12-1-5.59,5.7.33,4.15,1.13,8.33.46,12.44-.76,4.71.26,9.67-2.1,14.14-.75,1.42-1.71,2.65-3.35,2.55-1.81-.11-1.59-1.89-1.81-3.11-1.93-10.68-4.06-21.32-5.6-32.06-1.18-8.28-3.28-16.32-5.24-24.44a56.17,56.17,0,0,0,.31,14.71c1.46,12,4,24,3.3,36.16-.08,1.34.55,3.25-1.35,3.87-1.53.5-2.39-.75-3.12-1.91-.56-.9-1.28-1.63-2.44-1.12s-1.14,1.56-1.1,2.57c.08,1.66.17,3.33.39,5,1,7.73,2.19,15.44,3.12,23.18.18,1.5,1,3.53-.74,4.57-1.5.88-2.68-1.15-4.09-1.31-.85,1.4-.55,2.72-.42,4,1.81,19,2.6,38.16,5,57.16.92,7.23.77,14.61,2.06,21.84a23.2,23.2,0,0,1,0,4.49c0,1.51-1.29,2-2.34,2.17-1.29.17-1.2-1.18-1.55-2.1-2-5.26-1.67-10.79-2.12-16.24-.25-3,.51-6.43-2.55-8.64.12-1.24,1.53-2.2.78-3.63a347.75,347.75,0,0,0-4.09-42c0-.67,0-1.33,0-2a31.34,31.34,0,0,0-1.75-12.18L841,788a41.41,41.41,0,0,0-2-16c-.27-9.14-1.88-18.1-3.28-27.1-1.64-10.48-3-21-4.72-31.48-1.65-9.93-3.55-19.83-5.49-29.71-2.09-10.68-4.1-21.39-6.63-32-3.25-13.63-6.75-27.2-10.93-40.6-3.93-12.56-8-25-12.43-37.43-5.69-15.89-12.2-31.4-19.17-46.74-5.77-12.72-12.55-24.91-19.54-37A23.62,23.62,0,0,0,751.06,480.83Zm-273.86-195,0-1.83c-12-.33-24.07-.39-36.08.43l.05,1.4Z" fill="none"/>
    </clipPath>
    <clipPath id="clip-path-2" transform="translate(-65.19 -200.13)">
      <path id="head" d="M363,371.69l3.87,2.15c2.49,1.38,3.17,2.92.43,4.78-3.57,2.43-1.61,3.79,1.05,4.71,4.35,1.5,8.82,2.66,13.14,4.23,4.63,1.68,4.6,1.85,1.58,5.92a238,238,0,0,0,32.11,10.79c5.55,1.51,11.05,3.24,16.54,5,1.61.51,4,.67,3.24,3.35s-3.16,1.5-4.56,1.15c-7.82-2-15.57-4.23-23.33-6.43-11.09-3.13-22.2-6.2-33.25-9.49-12.12-3.62-24.16-7.51-36.26-11.2-9.77-3-19.61-5.74-29.37-8.74q-20.54-6.3-41-12.82c-13.79-4.37-27.57-8.74-41.31-13.26q-21.5-7.08-42.9-14.47c-16.43-5.69-32.81-11.53-49.19-17.36-11-3.91-21.9-7.93-32.86-11.86a7,7,0,0,0-2-.1v-2c6.34-2.94,10.68-8.38,15.76-12.85,9.62-8.44,18.46-17.78,30.64-22.88a362.92,362.92,0,0,1,34.39-12c11.94-3.65,24-6.92,36-10.43,10.44-3,20.82-6.27,31.27-9.26,10.07-2.89,20.18-5.69,30.32-8.33,11.48-3,23-5.67,34.5-8.63,11.17-2.89,22.2-6.37,33.67-7.86,1.83-.24,4.45-2.82,5.6,0,1.08,2.63-3.22,2.27-3.89,4.39-2.33.29-3.68,2.47-6.2,2.4,1,2.32,3.55.69,3.78,2.43.24,1.9-1.58,2.63-2.93,3.59-1.83,1.3-3.35,3-5.61,3.69-1.11.32-1.9,1.17-1.53,2.18,2.26,6.19-3.16,5.9-6.26,7.37-1.41.67-3.79.3-3.13,2.74s2.86,1.48,4.51,1.06,3.44-1.09,5.16-1.65c1.52,2.49,1.86,4.94-1.49,5.89-5.66,1.61-11.36,3.38-17.16,4-4,.42-7,4.48-11.42,2.83-.63-.24-1.45.72-1.34,1.72s.86,1.31,1.74,1.38c2.79.21,5.42-3.14,6.18-3,6,1.4,10.88-2,16.25-3,1.46-.27,3.27-2,4.17.32.85,2.21-1.73,2.32-2.85,3.32-7.26,1.05-14.1,3.85-21.37,5-3.72.61-6,4.73-9.95,6.17-8.86,3.21-18,5.22-27.1,7.32-9.81,2.25-19.09,6.08-28.67,9-12.61,3.86-25.11,8-37.89,11.32a51.05,51.05,0,0,0-5.13,1.9c-1.4.05-3.63-.42-3.6,1.38,0,2.76,2.75,2,4.56,2.22,12.37.83,23.64,5.93,35.36,9.26,14.4,4.09,28.65,8.74,42.94,13.21q16,5,32,10.19c16.62,5.35,33.24,10.74,50.5,16.32-4.15,3.59-1.66,5.41,1.58,6.8a61.53,61.53,0,0,1,9.84,5.66c2.67,1.79,4,4.42,2.81,7.27-1.31,3.21-3.9.74-6,.5a18.86,18.86,0,0,0-2,0c-9.38-2.95-18.67-6.27-29.38-7.45C345.71,367.27,354.81,368.39,363,371.69Z" fill="none"/>
    </clipPath>
  </defs>
  <title>side-arrow</title>
  <g id="body_mask">
    <g clip-path="url(#clip-path)">
      <path id="body1" d="M367,300c47.75-8.11,113.16-11.72,186,7,35.75,9.19,81.69,21.49,128,58,41.33,32.58,62.69,68.46,91,116,32.65,54.84,50,101.17,56,118,30.63,86.51,34.84,158,37,200a795.87,795.87,0,0,1-1,98" transform="translate(-65.19 -200.13)" fill="none" stroke="#fcc306" stroke-miterlimit="10" stroke-width="52"/>
    </g>
  </g>
  <g id="head_mask">
    <g clip-path="url(#clip-path-2)">
      <polyline id="head1" points="311.81 24.87 81.81 94.87 354.81 194.87" fill="none" stroke="#fcc306" stroke-miterlimit="10" stroke-width="52"/>
    </g>
  </g>
</svg>
